# This file uses centimeters as units for non-parametric coordinates.

mtllib cup.mtl
g default
v -8.070977 3.212434 -0.033286
v -8.086277 3.212434 -0.063314
v -8.110108 3.212434 -0.087144
v -8.140135 3.212434 -0.102444
v -8.173422 3.212434 -0.107716
v -8.206708 3.212434 -0.102444
v -8.236736 3.212434 -0.087144
v -8.260566 3.212434 -0.063314
v -8.275866 3.212434 -0.033286
v -8.281138 3.212434 -0.000000
v -8.275866 3.212434 0.033286
v -8.260566 3.212434 0.063314
v -8.236735 3.212434 0.087144
v -8.206708 3.212434 0.102444
v -8.173422 3.212434 0.107716
v -8.140135 3.212434 0.102444
v -8.110108 3.212434 0.087144
v -8.086277 3.212434 0.063314
v -8.070977 3.212434 0.033286
v -8.065705 3.212434 -0.000000
v -8.015213 3.722728 -0.051405
v -8.038842 3.722728 -0.097778
v -8.075644 3.722728 -0.134580
v -8.122017 3.722728 -0.158208
v -8.173422 3.722728 -0.166350
v -8.224826 3.722728 -0.158208
v -8.271199 3.722728 -0.134580
v -8.308001 3.722728 -0.097778
v -8.331629 3.722728 -0.051405
v -8.339771 3.722728 0.000000
v -8.331629 3.722728 0.051405
v -8.308001 3.722728 0.097778
v -8.271199 3.722728 0.134580
v -8.224826 3.722728 0.158208
v -8.173422 3.722728 0.166350
v -8.122017 3.722728 0.158208
v -8.075644 3.722728 0.134580
v -8.038842 3.722728 0.097778
v -8.015214 3.722728 0.051405
v -8.007072 3.722728 0.000000
v -8.173422 3.212434 0.000000
v -8.025142 3.722728 -0.048179
v -8.047288 3.722728 -0.091642
v -8.081780 3.722728 -0.126134
v -8.125243 3.722728 -0.148279
v -8.173422 3.722728 -0.155910
v -8.221600 3.722728 -0.148279
v -8.265063 3.722728 -0.126134
v -8.299555 3.722728 -0.091642
v -8.321701 3.722728 -0.048179
v -8.329331 3.722728 -0.000000
v -8.321701 3.722728 0.048179
v -8.299555 3.722728 0.091641
v -8.265063 3.722728 0.126134
v -8.221600 3.722728 0.148279
v -8.173422 3.722728 0.155910
v -8.125243 3.722728 0.148279
v -8.081780 3.722728 0.126134
v -8.047288 3.722728 0.091641
v -8.025142 3.722728 0.048179
v -8.017512 3.722728 -0.000000
v -8.071136 3.301921 -0.033235
v -8.086412 3.301921 -0.063216
v -8.110206 3.301921 -0.087009
v -8.140187 3.301921 -0.102285
v -8.173422 3.301921 -0.107549
v -8.206656 3.301921 -0.102285
v -8.236637 3.301921 -0.087009
v -8.260431 3.301921 -0.063216
v -8.275707 3.301921 -0.033235
v -8.280971 3.301921 -0.000000
v -8.275707 3.301921 0.033235
v -8.260431 3.301921 0.063216
v -8.236637 3.301921 0.087009
v -8.206656 3.301921 0.102285
v -8.173422 3.301921 0.107549
v -8.140187 3.301921 0.102285
v -8.110206 3.301921 0.087009
v -8.086412 3.301921 0.063216
v -8.071136 3.301921 0.033235
v -8.065872 3.301921 -0.000000
v -8.173422 3.301921 -0.000000
vt 0.648603 0.107966
vt 0.626409 0.064408
vt 0.591842 0.029841
vt 0.548284 0.007647
vt 0.500000 -0.000000
vt 0.451716 0.007647
vt 0.408159 0.029841
vt 0.373591 0.064409
vt 0.351397 0.107966
vt 0.343750 0.156250
vt 0.351397 0.204534
vt 0.373591 0.248091
vt 0.408159 0.282659
vt 0.451716 0.304853
vt 0.500000 0.312500
vt 0.548284 0.304853
vt 0.591841 0.282659
vt 0.626409 0.248091
vt 0.648603 0.204534
vt 0.656250 0.156250
vt 0.375000 0.312500
vt 0.387500 0.312500
vt 0.400000 0.312500
vt 0.412500 0.312500
vt 0.425000 0.312500
vt 0.437500 0.312500
vt 0.450000 0.312500
vt 0.462500 0.312500
vt 0.475000 0.312500
vt 0.487500 0.312500
vt 0.500000 0.312500
vt 0.512500 0.312500
vt 0.525000 0.312500
vt 0.537500 0.312500
vt 0.550000 0.312500
vt 0.562500 0.312500
vt 0.575000 0.312500
vt 0.587500 0.312500
vt 0.600000 0.312500
vt 0.612500 0.312500
vt 0.625000 0.312500
vt 0.375000 0.688440
vt 0.387500 0.688440
vt 0.400000 0.688440
vt 0.412500 0.688440
vt 0.425000 0.688440
vt 0.437500 0.688440
vt 0.450000 0.688440
vt 0.462500 0.688440
vt 0.475000 0.688440
vt 0.487500 0.688440
vt 0.500000 0.688440
vt 0.512500 0.688440
vt 0.525000 0.688440
vt 0.537500 0.688440
vt 0.550000 0.688440
vt 0.562500 0.688440
vt 0.575000 0.688440
vt 0.587500 0.688440
vt 0.600000 0.688440
vt 0.612500 0.688440
vt 0.625000 0.688440
vt 0.500000 0.150000
vt 0.000000 0.000000
vt 1.000000 0.000000
vt 1.000000 1.000000
vt 0.000000 1.000000
vt 0.000000 0.000000
vt 1.000000 0.000000
vt 1.000000 1.000000
vt 0.000000 1.000000
vt 0.000000 0.000000
vt 1.000000 0.000000
vt 1.000000 1.000000
vt 0.000000 1.000000
vt 0.000000 0.000000
vt 1.000000 0.000000
vt 1.000000 1.000000
vt 0.000000 1.000000
vt 0.000000 0.000000
vt 1.000000 0.000000
vt 1.000000 1.000000
vt 0.000000 1.000000
vt 0.000000 0.000000
vt 1.000000 0.000000
vt 1.000000 1.000000
vt 0.000000 1.000000
vt 0.000000 0.000000
vt 1.000000 0.000000
vt 1.000000 1.000000
vt 0.000000 1.000000
vt 0.000000 0.000000
vt 1.000000 0.000000
vt 1.000000 1.000000
vt 0.000000 1.000000
vt 0.000000 0.000000
vt 1.000000 0.000000
vt 1.000000 1.000000
vt 0.000000 1.000000
vt 0.000000 0.000000
vt 1.000000 0.000000
vt 1.000000 1.000000
vt 0.000000 1.000000
vt 0.000000 0.000000
vt 1.000000 0.000000
vt 1.000000 1.000000
vt 0.000000 1.000000
vt 0.000000 0.000000
vt 1.000000 0.000000
vt 1.000000 1.000000
vt 0.000000 1.000000
vt 0.000000 0.000000
vt 1.000000 0.000000
vt 1.000000 1.000000
vt 0.000000 1.000000
vt 0.000000 0.000000
vt 1.000000 0.000000
vt 1.000000 1.000000
vt 0.000000 1.000000
vt 0.000000 0.000000
vt 1.000000 0.000000
vt 1.000000 1.000000
vt 0.000000 1.000000
vt 0.000000 0.000000
vt 1.000000 0.000000
vt 1.000000 1.000000
vt 0.000000 1.000000
vt 0.000000 0.000000
vt 1.000000 0.000000
vt 1.000000 1.000000
vt 0.000000 1.000000
vt 0.000000 0.000000
vt 1.000000 0.000000
vt 1.000000 1.000000
vt 0.000000 1.000000
vt 0.000000 0.000000
vt 1.000000 0.000000
vt 1.000000 1.000000
vt 0.000000 1.000000
vt 0.000000 0.000000
vt 1.000000 0.000000
vt 1.000000 1.000000
vt 0.000000 1.000000
vt 0.000000 0.000000
vt 1.000000 0.000000
vt 1.000000 1.000000
vt 0.000000 1.000000
vt 0.000000 0.000000
vt 1.000000 0.000000
vt 1.000000 1.000000
vt 0.000000 1.000000
vt 0.000000 0.000000
vt 1.000000 0.000000
vt 1.000000 1.000000
vt 0.000000 1.000000
vt 0.000000 0.000000
vt 1.000000 0.000000
vt 1.000000 1.000000
vt 0.000000 1.000000
vt 0.000000 0.000000
vt 1.000000 0.000000
vt 1.000000 1.000000
vt 0.000000 1.000000
vt 0.000000 0.000000
vt 1.000000 0.000000
vt 1.000000 1.000000
vt 0.000000 1.000000
vt 0.000000 0.000000
vt 1.000000 0.000000
vt 1.000000 1.000000
vt 0.000000 1.000000
vt 0.000000 0.000000
vt 1.000000 0.000000
vt 1.000000 1.000000
vt 0.000000 1.000000
vt 0.000000 0.000000
vt 1.000000 0.000000
vt 1.000000 1.000000
vt 0.000000 1.000000
vt 0.000000 0.000000
vt 1.000000 0.000000
vt 1.000000 1.000000
vt 0.000000 1.000000
vt 0.000000 0.000000
vt 1.000000 0.000000
vt 1.000000 1.000000
vt 0.000000 1.000000
vt 0.000000 0.000000
vt 1.000000 0.000000
vt 1.000000 1.000000
vt 0.000000 1.000000
vt 0.000000 0.000000
vt 1.000000 0.000000
vt 1.000000 1.000000
vt 0.000000 1.000000
vt 0.000000 0.000000
vt 1.000000 0.000000
vt 1.000000 1.000000
vt 0.000000 1.000000
vt 0.000000 0.000000
vt 1.000000 0.000000
vt 1.000000 1.000000
vt 0.000000 1.000000
vt 0.000000 0.000000
vt 1.000000 0.000000
vt 1.000000 1.000000
vt 0.000000 1.000000
vt 0.000000 0.000000
vt 1.000000 0.000000
vt 1.000000 1.000000
vt 0.000000 1.000000
vt 0.000000 0.000000
vt 1.000000 0.000000
vt 1.000000 1.000000
vt 0.000000 1.000000
vt 0.000000 0.000000
vt 1.000000 0.000000
vt 1.000000 1.000000
vt 0.000000 1.000000
vt 0.000000 0.000000
vt 1.000000 0.000000
vt 1.000000 1.000000
vt 0.000000 1.000000
vt 0.000000 0.000000
vt 1.000000 0.000000
vt 0.500000 1.000000
vt 0.000000 0.000000
vt 1.000000 0.000000
vt 0.500000 1.000000
vt 0.000000 0.000000
vt 1.000000 0.000000
vt 0.500000 1.000000
vt 0.000000 0.000000
vt 1.000000 0.000000
vt 0.500000 1.000000
vt 0.000000 0.000000
vt 1.000000 0.000000
vt 0.500000 1.000000
vt 0.000000 0.000000
vt 1.000000 0.000000
vt 0.500000 1.000000
vt 0.000000 0.000000
vt 1.000000 0.000000
vt 0.500000 1.000000
vt 0.000000 0.000000
vt 1.000000 0.000000
vt 0.500000 1.000000
vt 0.000000 0.000000
vt 1.000000 0.000000
vt 0.500000 1.000000
vt 0.000000 0.000000
vt 1.000000 0.000000
vt 0.500000 1.000000
vt 0.000000 0.000000
vt 1.000000 0.000000
vt 0.500000 1.000000
vt 0.000000 0.000000
vt 1.000000 0.000000
vt 0.500000 1.000000
vt 0.000000 0.000000
vt 1.000000 0.000000
vt 0.500000 1.000000
vt 0.000000 0.000000
vt 1.000000 0.000000
vt 0.500000 1.000000
vt 0.000000 0.000000
vt 1.000000 0.000000
vt 0.500000 1.000000
vt 0.000000 0.000000
vt 1.000000 0.000000
vt 0.500000 1.000000
vt 0.000000 0.000000
vt 1.000000 0.000000
vt 0.500000 1.000000
vt 0.000000 0.000000
vt 1.000000 0.000000
vt 0.500000 1.000000
vt 0.000000 0.000000
vt 1.000000 0.000000
vt 0.500000 1.000000
vt 0.000000 0.000000
vt 1.000000 0.000000
vt 0.500000 1.000000
vn 0.944840 -0.114150 -0.306996
vn 0.803729 -0.114150 -0.583943
vn 0.803729 -0.114150 -0.583943
vn 0.944840 -0.114150 -0.306996
vn 0.583943 -0.114150 -0.803729
vn 0.583943 -0.114150 -0.803729
vn 0.306997 -0.114150 -0.944840
vn 0.306997 -0.114150 -0.944840
vn -0.000000 -0.114150 -0.993463
vn -0.000000 -0.114150 -0.993463
vn -0.306997 -0.114150 -0.944840
vn -0.306997 -0.114150 -0.944840
vn -0.583943 -0.114150 -0.803729
vn -0.583943 -0.114150 -0.803729
vn -0.803729 -0.114150 -0.583943
vn -0.803729 -0.114150 -0.583943
vn -0.944840 -0.114150 -0.306997
vn -0.944840 -0.114150 -0.306997
vn -0.993463 -0.114150 0.000000
vn -0.993463 -0.114150 0.000000
vn -0.944840 -0.114150 0.306997
vn -0.944840 -0.114150 0.306997
vn -0.803729 -0.114150 0.583943
vn -0.803729 -0.114150 0.583943
vn -0.583943 -0.114150 0.803729
vn -0.583943 -0.114150 0.803729
vn -0.306997 -0.114150 0.944840
vn -0.306997 -0.114150 0.944840
vn 0.000000 -0.114150 0.993464
vn 0.000000 -0.114150 0.993463
vn 0.306997 -0.114150 0.944840
vn 0.306997 -0.114150 0.944840
vn 0.583943 -0.114150 0.803729
vn 0.583943 -0.114150 0.803729
vn 0.803729 -0.114150 0.583943
vn 0.803729 -0.114150 0.583943
vn 0.944840 -0.114150 0.306997
vn 0.944840 -0.114150 0.306997
vn 0.993463 -0.114150 0.000001
vn 0.993464 -0.114150 0.000001
vn 0.000000 -1.000000 0.000000
vn 0.000000 -1.000000 0.000000
vn 0.000000 -1.000000 0.000000
vn 0.000000 -1.000000 0.000000
vn 0.000000 -1.000000 0.000000
vn 0.000000 -1.000000 0.000000
vn 0.000000 -1.000000 0.000000
vn 0.000000 -1.000000 0.000000
vn 0.000000 -1.000000 0.000000
vn 0.000000 -1.000000 0.000000
vn 0.000000 -1.000000 0.000000
vn 0.000000 -1.000000 0.000000
vn 0.000000 -1.000000 0.000000
vn 0.000000 -1.000000 0.000000
vn 0.000000 -1.000000 -0.000000
vn 0.000000 -1.000000 -0.000000
vn 0.000000 -1.000000 0.000000
vn 0.000000 -1.000000 0.000000
vn 0.000000 -1.000000 0.000000
vn 0.000000 -1.000000 0.000000
vn 0.000000 -1.000000 0.000000
vn 0.000000 1.000000 -0.000001
vn 0.000000 1.000000 -0.000001
vn 0.000000 1.000000 -0.000001
vn 0.000000 1.000000 -0.000001
vn 0.000000 1.000000 0.000001
vn 0.000000 1.000000 0.000001
vn 0.000000 1.000000 0.000001
vn 0.000000 1.000000 0.000001
vn 0.000000 1.000000 0.000000
vn 0.000000 1.000000 0.000000
vn 0.000000 1.000000 0.000000
vn 0.000000 1.000000 0.000000
vn 0.000000 1.000000 0.000000
vn 0.000000 1.000000 0.000000
vn 0.000000 1.000000 0.000000
vn 0.000000 1.000000 0.000000
vn 0.000000 1.000000 -0.000001
vn 0.000000 1.000000 -0.000001
vn 0.000000 1.000000 -0.000001
vn 0.000000 1.000000 -0.000001
vn 0.000000 1.000000 -0.000000
vn 0.000000 1.000000 -0.000000
vn 0.000000 1.000000 -0.000000
vn 0.000000 1.000000 -0.000000
vn 0.000000 1.000000 -0.000000
vn 0.000000 1.000000 -0.000000
vn 0.000000 1.000000 -0.000000
vn 0.000000 1.000000 -0.000000
vn 0.000000 1.000000 0.000000
vn 0.000000 1.000000 0.000000
vn 0.000000 1.000000 0.000000
vn 0.000000 1.000000 0.000000
vn 0.000000 1.000000 -0.000000
vn 0.000000 1.000000 -0.000000
vn 0.000000 1.000000 -0.000000
vn 0.000000 1.000000 -0.000000
vn 0.000000 1.000000 0.000001
vn 0.000000 1.000000 0.000001
vn 0.000000 1.000000 0.000001
vn 0.000000 1.000000 0.000001
vn 0.000000 1.000000 0.000001
vn 0.000000 1.000000 0.000001
vn 0.000000 1.000000 0.000001
vn 0.000000 1.000000 0.000001
vn 0.000000 1.000000 -0.000001
vn 0.000000 1.000000 -0.000001
vn 0.000000 1.000000 -0.000001
vn 0.000000 1.000000 -0.000001
vn 0.000000 1.000000 -0.000000
vn 0.000000 1.000000 -0.000000
vn 0.000000 1.000000 -0.000000
vn 0.000000 1.000000 -0.000000
vn 0.000000 1.000000 -0.000000
vn 0.000000 1.000000 -0.000000
vn 0.000000 1.000000 -0.000000
vn 0.000000 1.000000 -0.000000
vn 0.000000 1.000000 -0.000000
vn 0.000000 1.000000 -0.000000
vn 0.000000 1.000000 -0.000000
vn 0.000000 1.000000 -0.000000
vn 0.000000 1.000000 0.000000
vn 0.000000 1.000000 0.000000
vn 0.000000 1.000000 0.000000
vn 0.000000 1.000000 0.000000
vn 0.000000 1.000000 0.000000
vn 0.000000 1.000000 0.000000
vn 0.000000 1.000000 0.000000
vn 0.000000 1.000000 0.000000
vn 0.000000 1.000000 0.000000
vn 0.000000 1.000000 0.000000
vn 0.000000 1.000000 0.000000
vn 0.000000 1.000000 0.000000
vn 0.000000 1.000000 0.000000
vn 0.000000 1.000000 0.000000
vn 0.000000 1.000000 0.000000
vn 0.000000 1.000000 0.000000
vn 0.000000 1.000000 -0.000001
vn 0.000000 1.000000 -0.000001
vn 0.000000 1.000000 -0.000001
vn 0.000000 1.000000 -0.000001
vn -0.944838 0.114172 0.306996
vn -0.803727 0.114172 0.583942
vn -0.803727 0.114172 0.583942
vn -0.944838 0.114172 0.306995
vn -0.583942 0.114172 0.803727
vn -0.583942 0.114172 0.803727
vn -0.306996 0.114172 0.944838
vn -0.306996 0.114172 0.944838
vn 0.000000 0.114172 0.993461
vn 0.000000 0.114172 0.993461
vn 0.306996 0.114172 0.944838
vn 0.306996 0.114172 0.944838
vn 0.583942 0.114172 0.803727
vn 0.583942 0.114172 0.803727
vn 0.803727 0.114172 0.583942
vn 0.803727 0.114172 0.583942
vn 0.944838 0.114172 0.306996
vn 0.944838 0.114172 0.306996
vn 0.993461 0.114172 0.000000
vn 0.993461 0.114172 0.000000
vn 0.944838 0.114172 -0.306996
vn 0.944838 0.114172 -0.306996
vn 0.803727 0.114172 -0.583942
vn 0.803727 0.114172 -0.583942
vn 0.583942 0.114172 -0.803727
vn 0.583942 0.114172 -0.803727
vn 0.306996 0.114172 -0.944838
vn 0.306996 0.114172 -0.944838
vn -0.000000 0.114172 -0.993461
vn -0.000000 0.114172 -0.993461
vn -0.306996 0.114172 -0.944838
vn -0.306996 0.114172 -0.944838
vn -0.583942 0.114172 -0.803727
vn -0.583942 0.114172 -0.803727
vn -0.803727 0.114172 -0.583942
vn -0.803727 0.114172 -0.583942
vn -0.944838 0.114172 -0.306996
vn -0.944838 0.114172 -0.306996
vn -0.993461 0.114172 -0.000001
vn -0.993461 0.114172 -0.000001
vn -0.000000 1.000000 0.000001
vn -0.000000 1.000000 0.000001
vn -0.000000 1.000000 0.000001
vn -0.000000 1.000000 0.000000
vn -0.000000 1.000000 0.000000
vn -0.000000 1.000000 0.000000
vn -0.000000 1.000000 0.000001
vn -0.000000 1.000000 0.000001
vn -0.000000 1.000000 0.000001
vn -0.000000 1.000000 0.000000
vn -0.000000 1.000000 0.000000
vn -0.000000 1.000000 0.000000
vn 0.000000 1.000000 0.000001
vn 0.000000 1.000000 0.000001
vn 0.000000 1.000000 0.000001
vn 0.000000 1.000000 0.000001
vn 0.000000 1.000000 0.000001
vn 0.000000 1.000000 0.000001
vn 0.000000 1.000000 0.000000
vn 0.000000 1.000000 0.000000
vn 0.000000 1.000000 0.000000
vn 0.000000 1.000000 0.000000
vn 0.000000 1.000000 0.000000
vn 0.000000 1.000000 0.000000
vn 0.000000 1.000000 0.000000
vn 0.000000 1.000000 0.000000
vn 0.000000 1.000000 0.000000
vn 0.000000 1.000000 0.000000
vn 0.000000 1.000000 0.000000
vn 0.000000 1.000000 0.000000
vn 0.000000 1.000000 -0.000001
vn 0.000000 1.000000 -0.000001
vn 0.000000 1.000000 -0.000001
vn 0.000000 1.000000 0.000000
vn 0.000000 1.000000 0.000000
vn 0.000000 1.000000 0.000000
vn 0.000000 1.000000 -0.000001
vn 0.000000 1.000000 -0.000001
vn 0.000000 1.000000 -0.000001
vn 0.000000 1.000000 -0.000000
vn 0.000000 1.000000 -0.000000
vn 0.000000 1.000000 -0.000000
vn -0.000000 1.000000 -0.000000
vn -0.000000 1.000000 -0.000000
vn -0.000000 1.000000 -0.000000
vn -0.000000 1.000000 -0.000001
vn -0.000000 1.000000 -0.000001
vn -0.000000 1.000000 -0.000001
vn -0.000000 1.000000 0.000000
vn -0.000000 1.000000 0.000000
vn -0.000000 1.000000 0.000000
vn -0.000000 1.000000 -0.000001
vn -0.000000 1.000000 -0.000001
vn -0.000000 1.000000 -0.000001
vn -0.000000 1.000000 0.000000
vn -0.000000 1.000000 0.000000
vn -0.000000 1.000000 0.000000
vn -0.000000 1.000000 0.000000
vn -0.000000 1.000000 0.000000
vn -0.000000 1.000000 0.000000
s 1
g pCylinder9
usemtl initialShadingGroup
f 1/21/1 2/22/2 22/43/3 21/42/4
f 2/22/2 3/23/5 23/44/6 22/43/3
f 3/23/5 4/24/7 24/45/8 23/44/6
f 4/24/7 5/25/9 25/46/10 24/45/8
f 5/25/9 6/26/11 26/47/12 25/46/10
f 6/26/11 7/27/13 27/48/14 26/47/12
f 7/27/13 8/28/15 28/49/16 27/48/14
f 8/28/15 9/29/17 29/50/18 28/49/16
f 9/29/17 10/30/19 30/51/20 29/50/18
f 10/30/19 11/31/21 31/52/22 30/51/20
f 11/31/21 12/32/23 32/53/24 31/52/22
f 12/32/23 13/33/25 33/54/26 32/53/24
f 13/33/25 14/34/27 34/55/28 33/54/26
f 14/34/27 15/35/29 35/56/30 34/55/28
f 15/35/29 16/36/31 36/57/32 35/56/30
f 16/36/31 17/37/33 37/58/34 36/57/32
f 17/37/33 18/38/35 38/59/36 37/58/34
f 18/38/35 19/39/37 39/60/38 38/59/36
f 19/39/37 20/40/39 40/61/40 39/60/38
f 20/40/39 1/41/1 21/62/4 40/61/40
s 2
f 2/2/41 1/1/42 41/63/43
f 3/3/44 2/2/41 41/63/43
f 4/4/45 3/3/44 41/63/43
f 5/5/46 4/4/45 41/63/43
f 6/6/47 5/5/46 41/63/43
f 7/7/48 6/6/47 41/63/43
f 8/8/49 7/7/48 41/63/43
f 9/9/50 8/8/49 41/63/43
f 10/10/51 9/9/50 41/63/43
f 11/11/52 10/10/51 41/63/43
f 12/12/53 11/11/52 41/63/43
f 13/13/54 12/12/53 41/63/43
f 14/14/55 13/13/54 41/63/43
f 15/15/56 14/14/55 41/63/43
f 16/16/57 15/15/56 41/63/43
f 17/17/58 16/16/57 41/63/43
f 18/18/59 17/17/58 41/63/43
f 19/19/60 18/18/59 41/63/43
f 20/20/61 19/19/60 41/63/43
f 1/1/42 20/20/61 41/63/43
s off
f 21/64/62 22/65/63 43/66/64 42/67/65
f 22/68/66 23/69/67 44/70/68 43/71/69
f 23/72/70 24/73/71 45/74/72 44/75/73
f 24/76/74 25/77/75 46/78/76 45/79/77
f 25/80/78 26/81/79 47/82/80 46/83/81
f 26/84/82 27/85/83 48/86/84 47/87/85
f 27/88/86 28/89/87 49/90/88 48/91/89
f 28/92/90 29/93/91 50/94/92 49/95/93
f 29/96/94 30/97/95 51/98/96 50/99/97
f 30/100/98 31/101/99 52/102/100 51/103/101
f 31/104/102 32/105/103 53/106/104 52/107/105
f 32/108/106 33/109/107 54/110/108 53/111/109
f 33/112/110 34/113/111 55/114/112 54/115/113
f 34/116/114 35/117/115 56/118/116 55/119/117
f 35/120/118 36/121/119 57/122/120 56/123/121
f 36/124/122 37/125/123 58/126/124 57/127/125
f 37/128/126 38/129/127 59/130/128 58/131/129
f 38/132/130 39/133/131 60/134/132 59/135/133
f 39/136/134 40/137/135 61/138/136 60/139/137
f 40/140/138 21/141/139 42/142/140 61/143/141
s 3
f 42/144/142 43/145/143 63/146/144 62/147/145
f 43/148/143 44/149/146 64/150/147 63/151/144
f 44/152/146 45/153/148 65/154/149 64/155/147
f 45/156/148 46/157/150 66/158/151 65/159/149
f 46/160/150 47/161/152 67/162/153 66/163/151
f 47/164/152 48/165/154 68/166/155 67/167/153
f 48/168/154 49/169/156 69/170/157 68/171/155
f 49/172/156 50/173/158 70/174/159 69/175/157
f 50/176/158 51/177/160 71/178/161 70/179/159
f 51/180/160 52/181/162 72/182/163 71/183/161
f 52/184/162 53/185/164 73/186/165 72/187/163
f 53/188/164 54/189/166 74/190/167 73/191/165
f 54/192/166 55/193/168 75/194/169 74/195/167
f 55/196/168 56/197/170 76/198/171 75/199/169
f 56/200/170 57/201/172 77/202/173 76/203/171
f 57/204/172 58/205/174 78/206/175 77/207/173
f 58/208/174 59/209/176 79/210/177 78/211/175
f 59/212/176 60/213/178 80/214/179 79/215/177
f 60/216/178 61/217/180 81/218/181 80/219/179
f 61/220/180 42/221/142 62/222/145 81/223/181
s off
f 62/224/182 63/225/183 82/226/184
f 63/227/185 64/228/186 82/229/187
f 64/230/188 65/231/189 82/232/190
f 65/233/191 66/234/192 82/235/193
f 66/236/194 67/237/195 82/238/196
f 67/239/197 68/240/198 82/241/199
f 68/242/200 69/243/201 82/244/202
f 69/245/203 70/246/204 82/247/205
f 70/248/206 71/249/207 82/250/208
f 71/251/209 72/252/210 82/253/211
f 72/254/212 73/255/213 82/256/214
f 73/257/215 74/258/216 82/259/217
f 74/260/218 75/261/219 82/262/220
f 75/263/221 76/264/222 82/265/223
f 76/266/224 77/267/225 82/268/226
f 77/269/227 78/270/228 82/271/229
f 78/272/230 79/273/231 82/274/232
f 79/275/233 80/276/234 82/277/235
f 80/278/236 81/279/237 82/280/238
f 81/281/239 62/282/240 82/283/241
