# This file uses centimeters as units for non-parametric coordinates.

mtllib pencil.mtl
g default
v -8.470711 3.696610 -0.006191
v -8.476417 3.696610 -0.009486
v -8.482905 3.696610 -0.008341
v -8.487141 3.696610 -0.003294
v -8.487141 3.696610 0.003294
v -8.482905 3.696610 0.008341
v -8.476417 3.696610 0.009486
v -8.470711 3.696610 0.006191
v -8.468458 3.696610 -0.000000
v -8.466536 4.244949 -0.009838
v -8.475603 4.244949 -0.015073
v -8.485913 4.244949 -0.013255
v -8.492643 4.244949 -0.005235
v -8.492643 4.244949 0.005235
v -8.485913 4.244949 0.013255
v -8.475603 4.244949 0.015073
v -8.466536 4.244949 0.009838
v -8.462955 4.244949 0.000000
v -8.478261 3.696610 0.000000
v -8.478261 4.313902 0.000000
v -8.466536 3.705058 -0.009838
v -8.475603 3.705058 -0.015073
v -8.485913 3.705058 -0.013255
v -8.492643 3.705058 -0.005235
v -8.492643 3.705058 0.005235
v -8.485913 3.705058 0.013255
v -8.475603 3.705058 0.015073
v -8.466536 3.705058 0.009838
v -8.462955 3.705058 0.000000
vt 0.619694 0.055814
vt 0.527133 0.002374
vt 0.421875 0.020934
vt 0.353173 0.102809
vt 0.353173 0.209691
vt 0.421875 0.291566
vt 0.527133 0.310126
vt 0.619694 0.256686
vt 0.656250 0.156250
vt 0.375000 0.312500
vt 0.402778 0.312500
vt 0.430556 0.312500
vt 0.458333 0.312500
vt 0.486111 0.312500
vt 0.513889 0.312500
vt 0.541667 0.312500
vt 0.569445 0.312500
vt 0.597222 0.312500
vt 0.625000 0.312500
vt 0.375000 0.688440
vt 0.402778 0.688440
vt 0.430556 0.688440
vt 0.458333 0.688440
vt 0.486111 0.688440
vt 0.513889 0.688440
vt 0.541667 0.688440
vt 0.569445 0.688440
vt 0.597222 0.688440
vt 0.625000 0.688440
vt 0.619694 0.743314
vt 0.527133 0.689874
vt 0.421875 0.708434
vt 0.353173 0.790309
vt 0.353173 0.897191
vt 0.421875 0.979066
vt 0.527133 0.997626
vt 0.619694 0.944186
vt 0.656250 0.843750
vt 0.500000 0.150000
vt 0.500000 0.837500
vt 0.625000 0.318292
vt 0.375000 0.318292
vt 0.402778 0.318292
vt 0.430556 0.318292
vt 0.458333 0.318292
vt 0.486111 0.318292
vt 0.513889 0.318292
vt 0.541667 0.318292
vt 0.569445 0.318292
vt 0.597222 0.318292
vn 0.499990 -0.006200 -0.866009
vn 0.499991 -0.005955 -0.866010
vn 0.500000 0.000000 -0.866025
vn 0.500000 0.000000 -0.866025
vn -0.173644 -0.006386 -0.984788
vn -0.173645 -0.006107 -0.984789
vn -0.173648 -0.000000 -0.984808
vn -0.173648 -0.000000 -0.984808
vn -0.766028 -0.006486 -0.642774
vn -0.766029 -0.006302 -0.642775
vn -0.766044 -0.000000 -0.642788
vn -0.766044 -0.000000 -0.642788
vn -0.999979 -0.006452 -0.000000
vn -0.999979 -0.006452 -0.000000
vn -1.000000 0.000000 -0.000000
vn -1.000000 0.000000 -0.000000
vn -0.766029 -0.006302 0.642775
vn -0.766028 -0.006486 0.642774
vn -0.766044 -0.000000 0.642788
vn -0.766044 -0.000000 0.642788
vn -0.173645 -0.006107 0.984789
vn -0.173645 -0.006386 0.984788
vn -0.173648 -0.000000 0.984808
vn -0.173648 -0.000000 0.984808
vn 0.499991 -0.005955 0.866010
vn 0.499990 -0.006200 0.866009
vn 0.500000 0.000000 0.866025
vn 0.500000 0.000000 0.866025
vn 0.939676 -0.005919 0.342014
vn 0.939676 -0.006015 0.342014
vn 0.939693 0.000000 0.342020
vn 0.939693 0.000000 0.342020
vn 0.939676 -0.006015 -0.342014
vn 0.939676 -0.005919 -0.342014
vn 0.939693 0.000000 -0.342020
vn 0.939693 0.000000 -0.342020
vn 0.000000 -1.000000 0.000000
vn 0.000000 -1.000000 0.000000
vn 0.000000 -1.000000 0.000001
vn 0.000000 -1.000000 0.000000
vn 0.000000 -1.000000 0.000000
vn 0.000000 -1.000000 0.000000
vn 0.000000 -1.000000 0.000001
vn 0.000000 -1.000000 0.000003
vn 0.000000 -1.000000 0.000002
vn 0.000000 -1.000000 0.000000
vn 0.747843 0.216693 -0.627515
vn 0.169522 0.216693 -0.961408
vn 0.000000 1.000000 0.000001
vn -0.488120 0.216693 -0.845448
vn -0.917365 0.216693 -0.333894
vn -0.917365 0.216693 0.333894
vn -0.488120 0.216693 0.845448
vn 0.169522 0.216693 0.961408
vn 0.747843 0.216693 0.627515
vn 0.976240 0.216693 0.000001
vn 0.424778 -0.527501 -0.735736
vn 0.424778 -0.527501 -0.735736
vn -0.146621 -0.535789 -0.831524
vn -0.146621 -0.535789 -0.831524
vn -0.643298 -0.542950 -0.539790
vn -0.643298 -0.542950 -0.539790
vn -0.837950 -0.545747 0.000000
vn -0.837950 -0.545747 0.000000
vn -0.643298 -0.542950 0.539790
vn -0.643298 -0.542950 0.539790
vn -0.146621 -0.535789 0.831524
vn -0.146621 -0.535789 0.831524
vn 0.424777 -0.527500 0.735736
vn 0.424777 -0.527500 0.735736
vn 0.801502 -0.522008 0.291722
vn 0.801502 -0.522008 0.291722
vn 0.801502 -0.522008 -0.291722
vn 0.801502 -0.522008 -0.291722
s 1
g pCylinder10
usemtl initialShadingGroup
f 21/42/1 22/43/2 11/21/3 10/20/4
s 2
f 22/43/5 23/44/6 12/22/7 11/21/8
s 3
f 23/44/9 24/45/10 13/23/11 12/22/12
s 4
f 24/45/13 25/46/14 14/24/15 13/23/16
s 5
f 25/46/17 26/47/18 15/25/19 14/24/20
s 6
f 26/47/21 27/48/22 16/26/23 15/25/24
s 7
f 27/48/25 28/49/26 17/27/27 16/26/28
s 8
f 28/49/29 29/50/30 18/28/31 17/27/32
s 9
f 29/50/33 21/41/34 10/29/35 18/28/36
s 10
f 2/2/37 1/1/38 19/39/39
f 3/3/40 2/2/37 19/39/39
f 4/4/41 3/3/40 19/39/39
f 5/5/42 4/4/41 19/39/39
f 6/6/43 5/5/42 19/39/39
f 7/7/44 6/6/43 19/39/39
f 8/8/45 7/7/44 19/39/39
f 9/9/46 8/8/45 19/39/39
f 1/1/38 9/9/46 19/39/39
s 11
f 10/37/47 11/36/48 20/40/49
f 11/36/48 12/35/50 20/40/49
f 12/35/50 13/34/51 20/40/49
f 13/34/51 14/33/52 20/40/49
f 14/33/52 15/32/53 20/40/49
f 15/32/53 16/31/54 20/40/49
f 16/31/54 17/30/55 20/40/49
f 17/30/55 18/38/56 20/40/49
f 18/38/56 10/37/47 20/40/49
s 1
f 1/10/57 2/11/58 22/43/2 21/42/1
s 2
f 2/11/59 3/12/60 23/44/6 22/43/5
s 3
f 3/12/61 4/13/62 24/45/10 23/44/9
s 4
f 4/13/63 5/14/64 25/46/14 24/45/13
s 5
f 5/14/65 6/15/66 26/47/18 25/46/17
s 6
f 6/15/67 7/16/68 27/48/22 26/47/21
s 7
f 7/16/69 8/17/70 28/49/26 27/48/25
s 8
f 8/17/71 9/18/72 29/50/30 28/49/29
s 9
f 9/18/73 1/19/74 21/41/34 29/50/33
