# This file uses centimeters as units for non-parametric coordinates.

mtllib table.mtl
g default
v -3.995611 0.556397 9.682184
v 3.995611 0.556397 9.682184
v -3.995611 2.504645 9.682184
v 3.995611 2.504645 9.682184
v -3.995611 2.504645 6.457702
v 3.995611 2.504645 6.457702
v -3.995611 0.556397 6.457702
v 3.995611 0.556397 6.457702
v -3.995611 1.903716 9.682184
v 3.995611 1.903716 9.682184
v 3.995611 1.903716 6.457702
v -3.995611 1.903716 6.457702
v -5.499821 2.304325 11.645580
v 5.499821 2.304325 11.645580
v 5.499821 2.504645 11.645580
v -5.499821 2.504645 11.645580
v -5.499821 2.504645 4.494306
v 5.499821 2.504645 4.494306
v 5.499821 2.304325 4.494306
v -5.499821 2.304325 4.494306
vt 0.375000 0.000000
vt 0.625000 0.000000
vt 0.375000 0.250000
vt 0.625000 0.250000
vt 0.375000 0.500000
vt 0.625000 0.500000
vt 0.375000 0.750000
vt 0.625000 0.750000
vt 0.375000 1.000000
vt 0.625000 1.000000
vt 0.875000 0.000000
vt 0.875000 0.250000
vt 0.125000 0.000000
vt 0.125000 0.250000
vt 0.375000 0.200000
vt 0.625000 0.200000
vt 0.625000 0.550000
vt 0.875000 0.200000
vt 0.125000 0.200000
vt 0.375000 0.550000
vt 0.375000 0.200000
vt 0.625000 0.200000
vt 0.625000 0.250000
vt 0.375000 0.250000
vt 0.375000 0.500000
vt 0.625000 0.500000
vt 0.625000 0.550000
vt 0.375000 0.550000
vt 0.875000 0.200000
vt 0.875000 0.250000
vt 0.125000 0.200000
vt 0.125000 0.250000
vn 0.000000 0.000000 1.000000
vn 0.000000 0.000000 1.000000
vn 0.000000 0.000000 1.000000
vn 0.000000 0.000000 1.000000
vn 0.000000 1.000000 0.000000
vn 0.000000 1.000000 0.000000
vn 0.000000 1.000000 0.000000
vn 0.000000 1.000000 0.000000
vn 0.000000 0.000000 -1.000000
vn 0.000000 0.000000 -1.000000
vn 0.000000 0.000000 -1.000000
vn 0.000000 0.000000 -1.000000
vn 0.000000 -1.000000 0.000000
vn 0.000000 -1.000000 0.000000
vn 0.000000 -1.000000 0.000000
vn 0.000000 -1.000000 0.000000
vn 1.000000 0.000000 0.000000
vn 1.000000 0.000000 0.000000
vn 1.000000 0.000000 0.000000
vn 1.000000 0.000000 0.000000
vn -1.000000 0.000000 0.000000
vn -1.000000 0.000000 0.000000
vn -1.000000 0.000000 0.000000
vn -1.000000 0.000000 0.000000
vn 0.000000 0.000000 1.000000
vn 0.000000 0.000000 1.000000
vn 0.000000 0.000000 1.000000
vn 0.000000 0.000000 1.000000
vn 1.000000 0.000000 0.000000
vn 1.000000 0.000000 0.000000
vn 1.000000 0.000000 0.000000
vn 1.000000 0.000000 0.000000
vn 0.000000 0.000000 -1.000000
vn 0.000000 0.000000 -1.000000
vn 0.000000 0.000000 -1.000000
vn 0.000000 0.000000 -1.000000
vn -1.000000 0.000000 0.000000
vn -1.000000 0.000000 0.000000
vn -1.000000 0.000000 0.000000
vn -1.000000 0.000000 0.000000
vn 0.000000 -0.979812 0.199920
vn 0.000000 -0.979812 0.199920
vn 0.000000 -0.979812 0.199920
vn 0.000000 -0.979812 0.199920
vn 0.000000 1.000000 -0.000000
vn 0.000000 1.000000 -0.000000
vn 0.000000 1.000000 -0.000000
vn 0.000000 1.000000 -0.000000
vn 0.000000 1.000000 0.000000
vn 0.000000 1.000000 0.000000
vn 0.000000 1.000000 0.000000
vn 0.000000 1.000000 0.000000
vn 0.000000 -0.979812 -0.199920
vn 0.000000 -0.979812 -0.199920
vn 0.000000 -0.979812 -0.199920
vn 0.000000 -0.979812 -0.199920
vn 0.257355 -0.966317 0.000000
vn 0.257355 -0.966317 0.000000
vn 0.257355 -0.966317 0.000000
vn 0.257355 -0.966317 0.000000
vn 0.000000 1.000000 0.000000
vn 0.000000 1.000000 0.000000
vn 0.000000 1.000000 0.000000
vn 0.000000 1.000000 0.000000
vn -0.257355 -0.966317 0.000000
vn -0.257355 -0.966317 0.000000
vn -0.257355 -0.966317 0.000000
vn -0.257355 -0.966317 0.000000
vn 0.000000 1.000000 0.000000
vn 0.000000 1.000000 0.000000
vn 0.000000 1.000000 0.000000
vn 0.000000 1.000000 0.000000
s off
g pCube9
usemtl initialShadingGroup
f 13/21/1 14/22/2 15/23/3 16/24/4
f 3/3/5 4/4/6 6/6/7 5/5/8
f 17/25/9 18/26/10 19/27/11 20/28/12
f 7/7/13 8/8/14 2/10/15 1/9/16
f 14/22/17 19/29/18 18/30/19 15/23/20
f 20/31/21 13/21/22 16/24/23 17/32/24
f 1/1/25 2/2/26 10/16/27 9/15/28
f 2/2/29 8/11/30 11/18/31 10/16/32
f 12/20/33 11/17/34 8/8/35 7/7/36
f 7/13/37 1/1/38 9/15/39 12/19/40
f 9/15/41 10/16/42 14/22/43 13/21/44
f 4/4/45 3/3/46 16/24/47 15/23/48
f 5/5/49 6/6/50 18/26/51 17/25/52
f 11/17/53 12/20/54 20/28/55 19/27/56
f 10/16/57 11/18/58 19/29/59 14/22/60
f 6/12/61 4/4/62 15/23/63 18/30/64
f 12/19/65 9/15/66 13/21/67 20/31/68
f 3/3/69 5/14/70 17/32/71 16/24/72
